<svg xmlns="http://www.w3.org/2000/svg" width="18" height="18" fill="#7e92a2" xmlns:v="https://vecta.io/nano"><path d="M6.633 8.683h-.067a.47.47 0 0 0-.15 0C4 8.608 2.175 6.708 2.175 4.367 2.175 1.983 4.116.042 6.5.042s4.325 1.942 4.325 4.325a4.31 4.31 0 0 1-4.167 4.317h-.025zM6.5 1.292c-1.692 0-3.075 1.383-3.075 3.075 0 1.667 1.3 3.008 2.958 3.067.05-.008.158-.008.267 0a3.07 3.07 0 0 0 2.925-3.067c0-1.692-1.383-3.075-3.075-3.075zm6.283 7.5c-.025 0-.05 0-.075-.008-.342.033-.692-.208-.725-.55s.175-.65.517-.692c.1-.008.208-.008.3-.008a2.29 2.29 0 0 0 2.167-2.292 2.29 2.29 0 0 0-2.292-2.292c-.342.008-.625-.275-.625-.617a.63.63 0 0 1 .625-.625 3.55 3.55 0 0 1 3.542 3.542c0 1.917-1.5 3.467-3.408 3.542h-.025zm-6.142 9c-1.633 0-3.275-.417-4.517-1.25C.966 15.775.333 14.725.333 13.583s.633-2.2 1.792-2.975c2.5-1.658 6.55-1.658 9.033 0 1.15.767 1.792 1.817 1.792 2.958s-.633 2.2-1.792 2.975c-1.25.833-2.883 1.25-4.517 1.25zm-3.825-6.133c-.8.533-1.233 1.217-1.233 1.933 0 .708.442 1.392 1.233 1.917 2.075 1.392 5.575 1.392 7.65 0 .8-.533 1.233-1.217 1.233-1.933 0-.708-.442-1.392-1.233-1.917-2.075-1.383-5.575-1.383-7.65 0zm11.467 4.633c-.292 0-.55-.2-.608-.5-.067-.342.15-.667.483-.742.525-.108 1.008-.317 1.383-.608.475-.358.733-.808.733-1.283s-.258-.925-.725-1.275c-.367-.283-.825-.483-1.367-.608a.63.63 0 0 1-.475-.75.63.63 0 0 1 .75-.475c.717.158 1.342.442 1.85.833.775.583 1.217 1.408 1.217 2.275s-.45 1.692-1.225 2.283c-.517.4-1.167.692-1.883.833a.39.39 0 0 1-.133.017z"/></svg>