<svg xmlns="http://wAww.w3.org/2000/svg" width="16" height="18" fill="#fff" xmlns:v="https://vecta.io/nano"><path d="M15.917 8.083V2.417c0-1.25-.533-1.75-1.858-1.75h-3.367c-1.325 0-1.858.5-1.858 1.75v5.667c0 1.25.533 1.75 1.858 1.75h3.367c1.325 0 1.858-.5 1.858-1.75zm-8.75 1.834v5.667c0 1.25-.533 1.75-1.858 1.75H1.942c-1.325 0-1.858-.5-1.858-1.75V9.917c0-1.25.533-1.75 1.858-1.75h3.367c1.325 0 1.858.5 1.858 1.75zm8.75 5.666V13.25c0-1.25-.533-1.75-1.858-1.75h-3.367c-1.325 0-1.858.5-1.858 1.75v2.333c0 1.25.533 1.75 1.858 1.75h3.367c1.325 0 1.858-.5 1.858-1.75zM7.167 4.75V2.417c0-1.25-.533-1.75-1.858-1.75H1.942c-1.325 0-1.858.5-1.858 1.75V4.75C.083 6 .617 6.5 1.942 6.5h3.367c1.325 0 1.858-.5 1.858-1.75z"/></svg>