<svg xmlns="http://www.w3.org/2000/svg" xmlns:xlink="http://www.w3.org/1999/xlink" width="18" height="18" fill="none" xmlns:v="https://vecta.io/nano"><g fill="#7e92a2"><use xlink:href="#B"/><use xlink:href="#B" x="6.666"/><path d="M6.083 11.083a.83.83 0 0 1-.317-.067.86.86 0 0 1-.275-.175.86.86 0 0 1-.242-.592.83.83 0 0 1 .067-.317.96.96 0 0 1 .175-.275.86.86 0 0 1 .275-.175.85.85 0 0 1 .908.175c.15.158.242.375.242.592 0 .05-.008.108-.017.167a.53.53 0 0 1-.05.15.63.63 0 0 1-.075.15c-.025.042-.067.083-.1.125-.158.15-.375.242-.592.242zm2.917 0a.83.83 0 0 1-.317-.067.86.86 0 0 1-.275-.175.86.86 0 0 1-.242-.592.83.83 0 0 1 .067-.317.96.96 0 0 1 .175-.275.86.86 0 0 1 .275-.175c.3-.133.675-.058.908.175.15.158.242.375.242.592 0 .05-.008.108-.017.167a.53.53 0 0 1-.05.15.63.63 0 0 1-.075.15c-.025.042-.067.083-.1.125-.158.15-.375.242-.592.242zm2.917 0a.83.83 0 0 1-.317-.067.86.86 0 0 1-.275-.175l-.1-.125c-.033-.05-.058-.1-.075-.15a.53.53 0 0 1-.05-.15l-.017-.167a.88.88 0 0 1 .242-.592.86.86 0 0 1 .275-.175c.308-.133.675-.058.908.175.15.158.242.375.242.592 0 .05-.008.108-.017.167a.53.53 0 0 1-.05.15c-.017.05-.042.1-.075.15-.025.042-.067.083-.1.125-.158.15-.375.242-.592.242zM6.083 14a.83.83 0 0 1-.317-.067.96.96 0 0 1-.275-.175c-.15-.158-.242-.375-.242-.592a.83.83 0 0 1 .067-.317.78.78 0 0 1 .175-.275c.308-.308.875-.308 1.183 0 .15.158.242.375.242.592a.88.88 0 0 1-.242.592c-.158.15-.375.242-.592.242zM9 14a.88.88 0 0 1-.592-.242c-.15-.158-.242-.375-.242-.592a.83.83 0 0 1 .067-.317.78.78 0 0 1 .175-.275c.308-.308.875-.308 1.183 0a.78.78 0 0 1 .175.275.83.83 0 0 1 .067.317.88.88 0 0 1-.242.592c-.158.15-.375.242-.592.242zm2.917 0a.88.88 0 0 1-.592-.242.78.78 0 0 1-.175-.275.83.83 0 0 1-.067-.317.83.83 0 0 1 .067-.317.78.78 0 0 1 .175-.275c.192-.192.483-.283.75-.225a.5.5 0 0 1 .158.05c.05.017.1.042.15.075.042.025.083.067.125.1.15.158.242.375.242.592a.88.88 0 0 1-.242.592c-.158.15-.375.242-.592.242zm4.166-6.8H1.917a.63.63 0 0 1-.625-.625.63.63 0 0 1 .625-.625h14.167a.63.63 0 0 1 .625.625.63.63 0 0 1-.625.625z"/><path d="M12.333 17.958H5.667c-3.042 0-4.792-1.75-4.792-4.792V6.083c0-3.042 1.75-4.792 4.792-4.792h6.667c3.042 0 4.792 1.75 4.792 4.792v7.083c0 3.042-1.75 4.792-4.792 4.792zM5.667 2.542c-2.383 0-3.542 1.158-3.542 3.542v7.083c0 2.383 1.158 3.542 3.542 3.542h6.667c2.383 0 3.542-1.158 3.542-3.542V6.083c0-2.383-1.158-3.542-3.542-3.542H5.667z"/></g><defs ><path id="B" d="M5.667 3.792a.63.63 0 0 1-.625-.625v-2.5a.63.63 0 0 1 .625-.625.63.63 0 0 1 .625.625v2.5a.63.63 0 0 1-.625.625z"/></defs></svg>