<svg xmlns="http://www.w3.org/2000/svg" width="18" height="18" fill="#7e92a2" xmlns:v="https://vecta.io/nano"><path d="M12.333 17.958H5.667c-3.85 0-4.567-1.792-4.75-3.533L.292 7.75c-.092-.875-.117-2.167.75-3.133.75-.833 1.992-1.233 3.792-1.233h8.333c1.808 0 3.05.408 3.792 1.233.867.967.842 2.258.75 3.142l-.625 6.658c-.183 1.75-.9 3.542-4.75 3.542zm-7.5-13.333c-1.408 0-2.375.275-2.867.825-.408.45-.542 1.142-.433 2.175l.625 6.675c.142 1.317.5 2.408 3.508 2.408h6.667c3 0 3.367-1.092 3.508-2.417l.625-6.658c.108-1.042-.025-1.733-.433-2.183-.492-.55-1.458-.825-2.867-.825H4.833z"/><path d="M12.333 4.625A.63.63 0 0 1 11.708 4v-.667c0-1.483 0-2.042-2.042-2.042H8.333c-2.042 0-2.042.558-2.042 2.042V4a.63.63 0 0 1-.625.625A.63.63 0 0 1 5.042 4v-.667c0-1.467 0-3.292 3.292-3.292h1.333c3.292 0 3.292 1.825 3.292 3.292V4a.63.63 0 0 1-.625.625zM9 12.958c-2.292 0-2.292-1.417-2.292-2.267v-.858c0-1.175.283-1.458 1.458-1.458h1.667c1.175 0 1.458.283 1.458 1.458v.833c0 .867 0 2.292-2.292 2.292zM7.958 9.625v.208.858c0 .858 0 1.017 1.042 1.017s1.042-.133 1.042-1.025v-.85-.208h-.208-1.667-.208z"/><path d="M10.667 11.308a.62.62 0 0 1-.617-.55c-.042-.342.2-.658.542-.7a13.14 13.14 0 0 0 6.083-2.4.62.62 0 0 1 .875.142.63.63 0 0 1-.142.875 14.47 14.47 0 0 1-6.667 2.633h-.075zm-3.334.009h-.075A14.3 14.3 0 0 1 .825 8.908a.63.63 0 0 1-.167-.867.63.63 0 0 1 .867-.167 13.13 13.13 0 0 0 5.867 2.2c.342.042.592.35.55.692a.6.6 0 0 1-.608.55z"/></svg>