<svg xmlns="http://www.w3.org/2000/svg" width="16" height="19" fill="#7e92a2" xmlns:v="https://vecta.io/nano"><path d="M8.017 17.108a18.06 18.06 0 0 1-5.725-.925c-.7-.242-1.233-.733-1.467-1.375-.242-.642-.158-1.35.225-1.983l.958-1.592c.2-.333.383-1 .383-1.392V7.433c0-3.1 2.525-5.625 5.625-5.625s5.625 2.525 5.625 5.625v2.408c0 .383.183 1.058.383 1.4l.95 1.583c.358.6.425 1.325.183 1.983s-.767 1.158-1.425 1.375c-1.833.617-3.775.925-5.717.925zm0-14.05a4.38 4.38 0 0 0-4.375 4.375v2.408c0 .608-.25 1.508-.558 2.033l-.958 1.592c-.183.308-.233.633-.125.908.1.283.35.5.692.617 3.483 1.167 7.175 1.167 10.658 0 .3-.1.533-.325.642-.625s.083-.625-.083-.9l-.958-1.592c-.317-.542-.558-1.433-.558-2.042v-2.4c0-2.417-1.958-4.375-4.375-4.375z"/><path d="M9.567 3.283a.62.62 0 0 1-.175-.025 5.87 5.87 0 0 0-.7-.15 4.86 4.86 0 0 0-2.033.15c-.233.075-.483 0-.642-.175a.62.62 0 0 1-.117-.65A2.27 2.27 0 0 1 8.025.983a2.26 2.26 0 0 1 2.125 1.45c.083.225.042.475-.117.65-.125.133-.3.2-.467.2zm-1.55 15.725c-.825 0-1.625-.333-2.208-.917a3.14 3.14 0 0 1-.917-2.208h1.25a1.89 1.89 0 0 0 1.875 1.875 1.88 1.88 0 0 0 1.875-1.875h1.25c0 1.725-1.4 3.125-3.125 3.125z"/></svg>