<svg xmlns="http://www.w3.org/2000/svg" width="18" height="18" fill="#7e92a2" xmlns:v="https://vecta.io/nano"><path d="M9 12.125c-1.725 0-3.125-1.4-3.125-3.125S7.275 5.875 9 5.875s3.125 1.4 3.125 3.125-1.4 3.125-3.125 3.125zm0-5A1.88 1.88 0 0 0 7.125 9 1.88 1.88 0 0 0 9 10.875 1.88 1.88 0 0 0 10.875 9 1.88 1.88 0 0 0 9 7.125zm2.675 10.367a2.25 2.25 0 0 1-.525-.067c-.517-.142-.95-.467-1.225-.925l-.1-.167c-.492-.85-1.167-.85-1.658 0l-.092.158c-.275.467-.708.8-1.225.933a1.95 1.95 0 0 1-1.525-.208l-1.433-.825a2.21 2.21 0 0 1-.816-3.017c.242-.425.308-.808.167-1.05s-.5-.383-.992-.383c-1.217 0-2.208-.992-2.208-2.208V8.267c0-1.217.992-2.208 2.208-2.208.492 0 .85-.142.992-.383s.083-.625-.167-1.05c-.292-.508-.367-1.108-.217-1.675a2.15 2.15 0 0 1 1.033-1.342L5.333.783a2.02 2.02 0 0 1 2.75.725l.1.167c.492.85 1.167.85 1.658 0l.092-.158C10.5.55 11.742.225 12.692.792l1.433.825a2.21 2.21 0 0 1 .816 3.017c-.242.425-.308.808-.167 1.05s.5.383.992.383c1.217 0 2.208.992 2.208 2.208v1.467c0 1.217-.992 2.208-2.208 2.208-.492 0-.85.142-.992.383s-.083.625.167 1.05a2.18 2.18 0 0 1 .217 1.675 2.15 2.15 0 0 1-1.033 1.342l-1.442.825c-.317.175-.658.267-1.008.267zM9 14.408c.742 0 1.433.467 1.908 1.292l.092.158a.74.74 0 0 0 .467.35.74.74 0 0 0 .567-.075l1.442-.833c.217-.125.383-.333.45-.583a.95.95 0 0 0-.092-.725c-.475-.817-.533-1.658-.167-2.3s1.125-1.008 2.075-1.008c.533 0 .958-.425.958-.958V8.258a.96.96 0 0 0-.958-.958c-.95 0-1.708-.367-2.075-1.008s-.308-1.483.167-2.3c.125-.217.158-.475.092-.725a.97.97 0 0 0-.442-.583l-1.442-.825c-.358-.217-.833-.092-1.05.275l-.092.158c-.475.825-1.167 1.292-1.908 1.292s-1.433-.467-1.908-1.292l-.092-.167c-.208-.35-.675-.475-1.033-.267l-1.442.833c-.217.125-.383.333-.45.583a.95.95 0 0 0 .092.725c.475.817.533 1.658.167 2.3S3.2 7.308 2.25 7.308c-.533 0-.958.425-.958.958v1.467a.96.96 0 0 0 .958.958c.95 0 1.708.367 2.075 1.008s.308 1.483-.167 2.3c-.125.217-.158.475-.092.725a.97.97 0 0 0 .442.583l1.442.825a.74.74 0 0 0 .575.083.79.79 0 0 0 .475-.357l.092-.158c.475-.817 1.167-1.292 1.908-1.292z"/></svg>