<svg xmlns="http://www.w3.org/2000/svg" xmlns:xlink="http://www.w3.org/1999/xlink" width="16" height="14" fill="none" xmlns:v="https://vecta.io/nano"><g fill="#7e92a2"><path d="M14.667 13.05H7.108c-.375 0-.683-.308-.683-.683s.308-.683.683-.683h7.558c.375 0 .683.308.683.683a.68.68 0 0 1-.683.683z"/><use xlink:href="#B"/><use xlink:href="#B" y="-5.25"/><path d="M2.092 3.692a.69.69 0 0 1-.483-.2L.85 2.733c-.267-.267-.267-.7 0-.967s.7-.267.967 0l.275.275L3.875.258c.267-.267.7-.267.967 0s.267.7 0 .967L2.575 3.492c-.133.125-.3.2-.483.2zm0 5.25a.68.68 0 0 1-.483-.2L.85 7.983c-.267-.267-.267-.7 0-.967s.7-.267.967 0l.275.275 1.783-1.783c.267-.267.7-.267.967 0s.267.7 0 .967L2.575 8.742a.68.68 0 0 1-.483.2zm0 5a.68.68 0 0 1-.483-.2l-.758-.758c-.267-.267-.267-.7 0-.967s.7-.267.967 0l.275.275 1.783-1.783c.267-.267.7-.267.967 0s.267.7 0 .967l-2.267 2.267a.68.68 0 0 1-.483.2z"/></g><defs ><path id="B" d="M14.667 7.808H7.108c-.375 0-.683-.308-.683-.683s.308-.683.683-.683h7.558c.375 0 .683.308.683.683s-.308.683-.683.683z"/></defs></svg>